<mxfile host="app.diagrams.net" modified="2024-01-03T00:16:04.117Z" agent="Mozilla/5.0 (X11; Linux x86_64) AppleWebKit/537.36 (KHTML, like Gecko) Chrome/112.0.0.0 Safari/537.36" etag="0mwkr0H45EZZ2hYrCxF9" version="22.1.16" type="device">
  <diagram name="Page-1" id="O72TatEB_TE8uF8BZmf5">
    <mxGraphModel dx="541" dy="788" grid="1" gridSize="10" guides="1" tooltips="1" connect="1" arrows="1" fold="1" page="1" pageScale="1" pageWidth="850" pageHeight="1100" math="0" shadow="0">
      <root>
        <mxCell id="0" />
        <mxCell id="1" parent="0" />
        <mxCell id="gTtiiFccZEzG8_fmZl8_-1" value="Sense" style="rounded=0;whiteSpace=wrap;html=1;" vertex="1" parent="1">
          <mxGeometry x="80" y="120" width="120" height="60" as="geometry" />
        </mxCell>
        <mxCell id="gTtiiFccZEzG8_fmZl8_-2" value="Think" style="rounded=0;whiteSpace=wrap;html=1;" vertex="1" parent="1">
          <mxGeometry x="250" y="120" width="120" height="60" as="geometry" />
        </mxCell>
        <mxCell id="gTtiiFccZEzG8_fmZl8_-3" value="Act" style="rounded=0;whiteSpace=wrap;html=1;" vertex="1" parent="1">
          <mxGeometry x="420" y="120" width="120" height="60" as="geometry" />
        </mxCell>
        <mxCell id="gTtiiFccZEzG8_fmZl8_-4" value="Read LiDAR packets" style="rounded=1;whiteSpace=wrap;html=1;" vertex="1" parent="1">
          <mxGeometry x="90" y="200" width="100" height="50" as="geometry" />
        </mxCell>
        <mxCell id="gTtiiFccZEzG8_fmZl8_-5" value="" style="endArrow=classic;html=1;rounded=0;exitX=0.5;exitY=1;exitDx=0;exitDy=0;entryX=0.5;entryY=0;entryDx=0;entryDy=0;" edge="1" parent="1" source="gTtiiFccZEzG8_fmZl8_-4" target="gTtiiFccZEzG8_fmZl8_-6">
          <mxGeometry width="50" height="50" relative="1" as="geometry">
            <mxPoint x="150" y="350" as="sourcePoint" />
            <mxPoint x="200" y="300" as="targetPoint" />
          </mxGeometry>
        </mxCell>
        <mxCell id="gTtiiFccZEzG8_fmZl8_-6" value="Preprocess scans" style="rounded=1;whiteSpace=wrap;html=1;" vertex="1" parent="1">
          <mxGeometry x="90" y="280" width="100" height="50" as="geometry" />
        </mxCell>
        <mxCell id="gTtiiFccZEzG8_fmZl8_-7" value="Plan target point to drive to" style="rounded=1;whiteSpace=wrap;html=1;" vertex="1" parent="1">
          <mxGeometry x="260" y="200" width="100" height="50" as="geometry" />
        </mxCell>
        <mxCell id="gTtiiFccZEzG8_fmZl8_-9" value="Calculate commands to reach target point" style="rounded=1;whiteSpace=wrap;html=1;" vertex="1" parent="1">
          <mxGeometry x="260" y="280" width="100" height="50" as="geometry" />
        </mxCell>
        <mxCell id="gTtiiFccZEzG8_fmZl8_-10" value="" style="endArrow=classic;html=1;rounded=0;exitX=1;exitY=0.5;exitDx=0;exitDy=0;entryX=0;entryY=0.5;entryDx=0;entryDy=0;" edge="1" parent="1" source="gTtiiFccZEzG8_fmZl8_-6" target="gTtiiFccZEzG8_fmZl8_-7">
          <mxGeometry width="50" height="50" relative="1" as="geometry">
            <mxPoint x="250" y="420" as="sourcePoint" />
            <mxPoint x="300" y="370" as="targetPoint" />
          </mxGeometry>
        </mxCell>
        <mxCell id="gTtiiFccZEzG8_fmZl8_-11" value="" style="endArrow=classic;html=1;rounded=0;exitX=0.5;exitY=1;exitDx=0;exitDy=0;entryX=0.5;entryY=0;entryDx=0;entryDy=0;" edge="1" parent="1" source="gTtiiFccZEzG8_fmZl8_-7" target="gTtiiFccZEzG8_fmZl8_-9">
          <mxGeometry width="50" height="50" relative="1" as="geometry">
            <mxPoint x="400" y="350" as="sourcePoint" />
            <mxPoint x="450" y="300" as="targetPoint" />
          </mxGeometry>
        </mxCell>
        <mxCell id="gTtiiFccZEzG8_fmZl8_-12" value="Execuate commands on actuators" style="rounded=1;whiteSpace=wrap;html=1;" vertex="1" parent="1">
          <mxGeometry x="430" y="200" width="100" height="50" as="geometry" />
        </mxCell>
        <mxCell id="gTtiiFccZEzG8_fmZl8_-13" value="" style="endArrow=classic;html=1;rounded=0;exitX=1;exitY=0.5;exitDx=0;exitDy=0;entryX=0;entryY=0.5;entryDx=0;entryDy=0;" edge="1" parent="1" source="gTtiiFccZEzG8_fmZl8_-9" target="gTtiiFccZEzG8_fmZl8_-12">
          <mxGeometry width="50" height="50" relative="1" as="geometry">
            <mxPoint x="390" y="370" as="sourcePoint" />
            <mxPoint x="440" y="320" as="targetPoint" />
          </mxGeometry>
        </mxCell>
      </root>
    </mxGraphModel>
  </diagram>
</mxfile>
